# xmcd
#
# Track frame offsets: 
#        150
#        13197
#        24505
#
# Disc length: 516 seconds
#
# Revision: 0
# Processed by: cddbd v1.5.2PL0 Copyright (c) Steve Scherf et al.
# Submitted via: ExactAudioCopy v0.99pb5
#
DISCID=1a020203
DTITLE=Van Morrison +Linda Gail Lewis - Let's Talk About US
DYEAR=1900
DGENRE=Country
TTITLE0=Let's Talk About US
TTITLE1=Singing the Blues
TTITLE2=The Ballad of Jesse James
EXTD=
EXTT0=
EXTT1=
EXTT2=
PLAYORDER=
